<?xml version="1.0" encoding="UTF-8"?>
<svg id="_图层_1" data-name="图层 1" xmlns="http://www.w3.org/2000/svg" viewBox="0 0 513.05 54.18">
  <defs>
    <style>
      .cls-1 {
        fill: #3e3a39;
      }
    </style>
  </defs>
  <g>
    <path class="cls-1" d="M66.64,7.32l.25-.2c1.42-1.13,5.83-4.52,9.1-6,0,0,.83-.43,1.99-.78l.14-.04s.03,0,.1-.03c.11-.03.31-.09.55-.14.2-.05.42-.1.65-.14-1.32,0-2.63.03-3.94.06-.29,0-.58,0-.88.02-21.75.6-41.06,4.06-54.6,9.23C7.54,14.09,0,20.32,0,27.13c0,5.44,4.79,10.51,13.04,14.75,4.4,2.25,9.54,1.62,13.45-1.59l5.16-4.24L66.41,7.5s.09-.06.22-.19"/>
    <path class="cls-1" d="M116.6,39.8c-.51-.62-.9-1.07-1.05-1.22l-.04-.05s-.02-.02-.02-.02c-1.56-1.78-3.16-3.57-4.78-5.36-5.38-5.88-10.82-11.36-16.21-16.39-1.68-1.57-3.35-3.08-5.01-4.56,0,0,0,0-.03-.02,0,0-.03-.03-.05-.06-.03-.03-.09-.08-.15-.14-.04-.04-.09-.08-.15-.13-.05-.05-.11-.1-.17-.16-1.29-1.07-4.53-3.53-7.48-3.52-2.93,0-6.18,2.45-7.46,3.52-.26.21-.43.38-.52.46-.02,0-.03.02-.03.03,0,0-.02,0-.02,0-1.65,1.48-3.33,2.99-5,4.56-5.41,5.03-10.85,10.51-16.22,16.39-1.63,1.78-3.23,3.57-4.78,5.36,0,0,0,0,0,.02-.09.08-.53.56-1.12,1.29-.03.04-.05.07-.08.1-2.4,3.02-6.83,10.08,2.36,11.96,10.06,1.48,21.18,2.31,32.88,2.31s22.84-.83,32.89-2.31c9.29-1.91,4.64-9.1,2.26-12.07h0Z"/>
    <path class="cls-1" d="M96.28,7.32l-.25-.2c-1.42-1.13-5.83-4.52-9.1-6,0,0-.83-.43-1.99-.78l-.14-.04s-.03,0-.1-.03c-.11-.03-.31-.09-.55-.14-.2-.05-.42-.1-.65-.14,1.32,0,2.63.03,3.94.06.29,0,.58,0,.88.02,21.75.6,41.06,4.06,54.6,9.23,12.46,4.78,20.01,11.01,20.01,17.82,0,5.44-4.79,10.51-13.04,14.75-4.4,2.25-9.54,1.62-13.45-1.59l-5.16-4.24L96.5,7.5s-.09-.06-.22-.19"/>
  </g>
  <g>
    <path class="cls-1" d="M253.93,9.4h-39.93c-.85,0-1.67.1-2.46.3-3.05.75-5.57,2.84-6.89,5.62-.64,1.34-1,2.85-1,4.44v25.14h7.89v-14.79h35.48l1.97-5.92h-37.45v-4.44c0-2.45,1.99-4.44,4.44-4.44h0s35.99,0,35.99,0l1.97-5.92Z"/>
    <path class="cls-1" d="M305.94,9.4v21.69c0,4.36-3.53,7.89-7.89,7.89h-18.73c-4.36,0-7.89-3.53-7.89-7.89V9.4h-7.89v21.69c0,7.62,6.18,13.8,13.8,13.8h22.68c7.62,0,13.8-6.18,13.8-13.8V9.4h-7.89Z"/>
    <polygon class="cls-1" points="332.64 38.97 332.64 9.4 324.75 9.4 324.75 38.97 324.75 44.89 324.75 44.89 367.14 44.89 369.11 38.97 332.64 38.97"/>
    <rect class="cls-1" x="442.11" y="9.4" width="8.54" height="35.49"/>
    <polygon class="cls-1" points="505.16 9.4 505.16 37.76 473.81 9.4 470.65 9.4 462.77 9.4 462.77 44.89 470.65 44.89 470.65 16.53 502 44.89 505.16 44.89 513.05 44.89 513.05 9.4 505.16 9.4"/>
    <path class="cls-1" d="M426.65,9.07l-11.9,24.22-10.97-22.26c-.43-.84-1.37-1.83-3.44-1.83-2.21,0-3.09,1.18-3.41,1.85l-10.93,22.24-11.93-24.22h-8.18l16.66,33.88c.34.72,1.23,1.9,3.46,1.9s3.08-1.18,3.42-1.9l10.96-22.26,10.93,22.27c.36.74,1.29,1.99,3.45,1.99,1.56,0,2.78-.69,3.45-1.98l16.67-33.89h-8.22Z"/>
  </g>
</svg>
