<svg xmlns="http://www.w3.org/2000/svg" viewBox="0 0 310.01 42.24"><defs><style>.cls-1,.cls-4{fill:#9bb1be;}.cls-1,.cls-3{fill-rule:evenodd;}.cls-2,.cls-3{fill:#6d808d;}</style></defs><g id="Layer_2" data-name="Layer 2"><g id="图层_1" data-name="图层 1"><path class="cls-1" d="M68.31,42.24H90.78A7.19,7.19,0,0,0,98,35.05V23.82a1.81,1.81,0,0,0-1.8-1.8H68.31a1.81,1.81,0,0,0-1.8,1.8V40.45A1.8,1.8,0,0,0,68.31,42.24Z"/><rect class="cls-2" x="33.26" y="22.02" width="31.46" height="20.22" rx="1.8"/><path class="cls-3" d="M7.19,42.24H29.66a1.8,1.8,0,0,0,1.8-1.79V23.82a1.81,1.81,0,0,0-1.8-1.8H1.8A1.81,1.81,0,0,0,0,23.82V35.05A7.19,7.19,0,0,0,7.19,42.24Z"/><path class="cls-3" d="M68.31,20.22H96.17A1.8,1.8,0,0,0,98,18.43v-13A5.39,5.39,0,0,0,92.58,0H68.31a1.8,1.8,0,0,0-1.8,1.8V18.43A1.8,1.8,0,0,0,68.31,20.22Z"/><rect class="cls-4" x="33.26" width="31.46" height="20.22" rx="1.8"/><path class="cls-1" d="M1.8,20.22H29.66a1.8,1.8,0,0,0,1.8-1.79V1.8A1.8,1.8,0,0,0,29.66,0H5.39A5.39,5.39,0,0,0,0,5.39v13A1.8,1.8,0,0,0,1.8,20.22Z"/><path class="cls-3" d="M259.28,25.07l-6.58,3.68a.4.4,0,0,1-.54-.13l-2.32-3.75a.26.26,0,0,0-.22-.12h-4.08a.13.13,0,0,0-.11.2l9.3,15a.26.26,0,0,0,.22.13H259a.13.13,0,0,0,.11-.2l-4.79-7.74a.4.4,0,0,1,.14-.55l4.88-2.73a.18.18,0,0,0,.09-.16V25.18A.12.12,0,0,0,259.28,25.07Z"/><path class="cls-3" d="M133.4,6V2.26a.18.18,0,0,1,.18-.18h4a.19.19,0,0,1,.18.18V6a.76.76,0,0,0,.76.76h17.78a.18.18,0,0,1,.18.18V9.88a.18.18,0,0,1-.18.18H138.49a.76.76,0,0,0-.76.76v4.54a.39.39,0,0,0,.39.4h17.15a.18.18,0,0,1,.18.18v3a.18.18,0,0,1-.18.18H116.09a.18.18,0,0,1-.18-.18v-3a.18.18,0,0,1,.18-.18H133a.4.4,0,0,0,.4-.4V10.82a.76.76,0,0,0-.76-.76H115.05a.18.18,0,0,1-.18-.18V7a.18.18,0,0,1,.18-.18h17.59A.76.76,0,0,0,133.4,6Z"/><path class="cls-3" d="M120.24,22.9A2.23,2.23,0,0,0,118,25.13V37.87a2.23,2.23,0,0,0,2.23,2.23h31a2.23,2.23,0,0,0,2.23-2.23V25.13a2.23,2.23,0,0,0-2.23-2.23Zm28.82,13.48h0a.39.39,0,0,1-.39.39H122.78a.4.4,0,0,1-.39-.39V26.62a.39.39,0,0,1,.39-.39h25.89a.38.38,0,0,1,.39.39Z"/><path class="cls-3" d="M193.22,40.1a.18.18,0,0,1-.18-.18V37a.18.18,0,0,1,.18-.18h8.54a.4.4,0,0,0,.4-.4V2.26a.19.19,0,0,1,.18-.18h4a.19.19,0,0,1,.18.18V37.7a2.4,2.4,0,0,1-2.4,2.4Z"/><rect class="cls-2" x="193.04" y="5.64" width="3.99" height="26.19" rx="0.18"/><path class="cls-3" d="M216.65,23h5.47a.76.76,0,0,0,.76-.76V16.94a.39.39,0,0,0-.39-.4h-5a.19.19,0,0,1-.18-.18V13.44a.19.19,0,0,1,.18-.18h15.23a.18.18,0,0,1,.18.18v2.92a.18.18,0,0,1-.18.18h-5.13a.4.4,0,0,0-.39.4v5.28a.76.76,0,0,0,.76.76h4.86a.18.18,0,0,1,.18.18v2.92a.18.18,0,0,1-.18.18h-4.86a.76.76,0,0,0-.76.76v9.4a.4.4,0,0,0,.4.4h5a.18.18,0,0,1,.18.18v2.92a.18.18,0,0,1-.18.18h-7.31a2.39,2.39,0,0,1-2.4-2.4V27a.76.76,0,0,0-.76-.76h-5.47a.18.18,0,0,1-.18-.18V23.16A.18.18,0,0,1,216.65,23Z"/><path class="cls-3" d="M255.61,3H237.12a1.79,1.79,0,0,0-1.79,1.78v33a2.4,2.4,0,0,0,2.4,2.4H249a.13.13,0,0,0,.11-.2L247.28,37a.26.26,0,0,0-.22-.13H240a.4.4,0,0,1-.4-.4V22.51a.4.4,0,0,1,.4-.4h15.6a2.39,2.39,0,0,0,2.39-2.4V5.35A2.39,2.39,0,0,0,255.61,3Zm-2.09,15.65H240a.4.4,0,0,1-.4-.4V14.47a.4.4,0,0,1,.4-.4h13.51a.4.4,0,0,1,.4.4v3.74a.4.4,0,0,1-.4.4Zm0-7.83H240a.43.43,0,0,1-.43-.43V6.63a.39.39,0,0,1,.4-.39h13.51a.39.39,0,0,1,.4.39v3.76A.39.39,0,0,1,253.52,10.78Z"/><path class="cls-3" d="M221.71,6.3a.39.39,0,0,1-.4-.39V2.26a.18.18,0,0,0-.18-.18h-3.7a.18.18,0,0,0-.18.18V7.19a2.39,2.39,0,0,0,2.39,2.39h13.14A.18.18,0,0,0,233,9.4V6.48a.19.19,0,0,0-.18-.18Z"/><path class="cls-3" d="M189.15,11.34h-8.9a.76.76,0,0,1-.76-.76V6a.4.4,0,0,1,.38-.4l7.59-.36a.22.22,0,0,0,.2-.21V2.24a.17.17,0,0,0-.17-.16l-20.91,1a.22.22,0,0,0-.2.21V6.08a.17.17,0,0,0,.17.16l8.2-.4a.4.4,0,0,1,.42.4v4.34a.76.76,0,0,1-.76.76h-9.52a.18.18,0,0,0-.18.18v2.92a.18.18,0,0,0,.18.18h9.52a.76.76,0,0,1,.76.76V39.92a.18.18,0,0,0,.18.18h4a.18.18,0,0,0,.18-.18V15.38a.76.76,0,0,1,.76-.76h8.9a.18.18,0,0,0,.18-.18V11.52A.18.18,0,0,0,189.15,11.34Z"/><path class="cls-3" d="M167.56,18.11h3.24a.15.15,0,0,1,.15.17l-1.87,21.63a.21.21,0,0,1-.21.19h-3.24a.16.16,0,0,1-.16-.17l1.88-21.63A.21.21,0,0,1,167.56,18.11Z"/><path class="cls-3" d="M187.1,18.11h-3.24a.15.15,0,0,0-.15.17l1.87,21.63a.21.21,0,0,0,.21.19H189a.16.16,0,0,0,.16-.17L187.31,18.3A.21.21,0,0,0,187.1,18.11Z"/><path class="cls-3" d="M269.38,2.08h4.05a.27.27,0,0,1,.25.16l4.06,9.55a.16.16,0,0,1-.14.22h-4.06a.26.26,0,0,1-.24-.16L269.24,2.3A.16.16,0,0,1,269.38,2.08Z"/><path class="cls-3" d="M269.38,13.27h4.05a.29.29,0,0,1,.25.16L277.74,23a.16.16,0,0,1-.14.22h-4.06a.26.26,0,0,1-.24-.16l-4.06-9.55A.15.15,0,0,1,269.38,13.27Z"/><path class="cls-3" d="M268.18,40.09h4.06a.26.26,0,0,0,.24-.17l5.39-13.77a.16.16,0,0,0-.15-.22h-4.05a.26.26,0,0,0-.25.16L268,39.88A.16.16,0,0,0,268.18,40.09Z"/><path class="cls-3" d="M296.16,10.53H284a2.39,2.39,0,0,0-2.39,2.4V29.19A2.39,2.39,0,0,0,284,31.58h12.12a2.4,2.4,0,0,0,2.4-2.39V12.93a2.4,2.4,0,0,0-2.4-2.4Zm-1.83,17.35h0a.43.43,0,0,1-.43.43h-7.59a.43.43,0,0,1-.43-.43V14.24a.43.43,0,0,1,.43-.43h7.59a.43.43,0,0,1,.43.43Z"/><path class="cls-3" d="M309.83,3H278.54a.13.13,0,0,0-.12.18l1.27,3a.26.26,0,0,0,.24.16H302a.39.39,0,0,1,.39.4V36.42a.39.39,0,0,1-.39.4h-7.36a.18.18,0,0,0-.18.18v2.92a.18.18,0,0,0,.18.18h9.69a2.39,2.39,0,0,0,2.39-2.4v-31a.4.4,0,0,1,.39-.4h2.71A.18.18,0,0,0,310,6.1v-3A.18.18,0,0,0,309.83,3Z"/></g></g></svg>
