<?xml version="1.0" encoding="UTF-8" standalone="no"?>
<!-- Created with Inkscape (http://www.inkscape.org/) -->

<svg
   xmlns:dc="http://purl.org/dc/elements/1.1/"
   xmlns:cc="http://creativecommons.org/ns#"
   xmlns:rdf="http://www.w3.org/1999/02/22-rdf-syntax-ns#"
   xmlns:svg="http://www.w3.org/2000/svg"
   xmlns="http://www.w3.org/2000/svg"
   version="1.1"
   width="461.91101"
   height="341.93201"
   viewBox="0 0 461.91099 341.932"
   id="svg2"
   xml:space="preserve"><metadata
   id="metadata15"><rdf:RDF><cc:Work
       rdf:about=""><dc:format>image/svg+xml</dc:format><dc:type
         rdf:resource="http://purl.org/dc/dcmitype/StillImage" /><dc:title></dc:title></cc:Work></rdf:RDF></metadata><defs
   id="defs13" />
<path
   d="M 230.95499,6.9439999 C 117.53399,64.91 33.48899,172.155 7.0429905,300.446 77.62199,323.079 152.85899,335.31 230.95499,335.31 c 78.097,0 153.332,-12.231 223.912,-34.864 C 428.42199,172.155 344.37599,64.91 230.95499,6.9439999 z"
   id="path3"
   style="fill:#eae5dc" />
<path
   d="m 209.20799,302.716 -11.531,13.624 -0.479,10.585 -4.39,-0.198 0.479,-10.586 -10.257,-14.608 5.213,0.236 7.424,10.405 8.33,-9.694 5.211,0.236 z m 37.8,17.293 c 0,4.405 -3.461,7.25 -8.819,7.25 h -17.119 v -24.725 h 14.529 c 6.141,0 9.254,2.397 9.254,7.127 0,1.391 -0.573,3.063 -1.68,4.187 2.237,1.061 3.835,3.517 3.835,6.161 z m -21.542,3.161 h 12.416 c 4.732,0 4.732,-2.518 4.732,-3.347 0,-2.639 -2.808,-3.189 -5.163,-3.189 h -11.985 v 6.536 z m 15.177,-13.479 c 0,-2.267 -1.095,-3.07 -4.18,-3.07 h -10.998 v 6.2 h 10.936 c 3.131,0 4.242,-0.818 4.242,-3.13 z m 115.736,-18.324 1.528,9.237 -16.552,2.739 -1.531,-9.238 -4.335,0.717 4.036,24.396 4.335,-0.717 -1.819,-11.002 16.556,-2.739 1.817,11.003 4.34,-0.718 -4.034,-24.396 -4.341,0.718 z m -183.04,33.91 -4.744,-0.425 -2.119,-6.039 -17.13,-1.534 -3.158,5.565 -4.744,-0.427 13.488,-23.616 9.333,0.838 9.074,25.638 z m -16.218,-22.033 -5.545,10.069 13.411,1.202 -3.666,-10.896 -4.2,-0.375 z m 134.067,22.588 -4.76,0.232 -2.931,-5.688 -17.175,0.838 -2.361,5.948 -4.762,0.232 10.108,-25.251 9.359,-0.457 12.522,24.146 z m -19.102,-19.589 -4.103,10.738 13.448,-0.657 -5.132,-10.286 -4.213,0.205 z m 51.467,-3.846 c -3.246,-3.079 -8.157,-4.576 -13.142,-4.004 -8.424,0.968 -14.617,7.499 -13.809,14.555 0.812,7.055 8.325,12.012 16.751,11.044 4.996,-0.573 9.443,-3.156 11.904,-6.902 l 0.411,-0.626 -3.384,-2.228 -0.413,0.628 c -1.81,2.758 -5.166,4.665 -8.98,5.104 -6.206,0.713 -11.71,-2.641 -12.265,-7.482 -0.558,-4.842 4.04,-9.357 10.247,-10.071 3.808,-0.437 7.503,0.657 9.891,2.922 l 2.789,-2.94 z m -195.367,-7.382 -14.743,17.6 -8.601,-21.288 -4.021,-0.635 -3.858,24.423 4.342,0.687 2.473,-15.659 6.949,17.147 3.86,0.61 11.895,-14.17 -2.474,15.658 4.342,0.685 3.858,-24.423 -4.022,-0.635 z"
   id="path5"
   style="fill:#cd3c27" />
<path
   d="m 53.38899,273.94 c 57.692,15.222 117.266,22.922 177.567,22.922 60.301,0 119.874,-7.7 177.567,-22.922 -28.495,-94.271 -91.492,-173.684 -177.567,-223.259 -86.076,49.575 -149.073,128.988 -177.567,223.259 z m 242.816,-166.693 v 179.55 c -8.138,0.767 -16.296,1.386 -24.467,1.867 V 128.698 l -40.784,40.784 -40.782,-40.783 v 159.965 c -8.172,-0.481 -16.329,-1.101 -24.467,-1.867 v -179.55 c 6.522,-6.018 13.265,-11.82 20.225,-17.393 l 45.024,45.025 45.025,-45.025 c 6.962,5.574 13.705,11.376 20.226,17.393 z m -27.333,86.763 v 34.602 l -37.919,37.919 -37.915,-37.914 v -34.603 l 37.915,37.915 37.919,-37.919 z m 71.941,-37.729 v 124.828 c -8.131,1.306 -16.285,2.483 -24.467,3.497 V 181.14 l -17.275,17.275 v -34.603 l 26.399,-26.399 c 5.317,6.128 10.437,12.416 15.343,18.868 z m -177.975,7.534 v 34.602 l -17.273,-17.272 v 103.462 c -8.182,-1.014 -16.336,-2.191 -24.467,-3.497 V 156.281 c 4.906,-6.451 10.026,-12.739 15.341,-18.865 l 26.399,26.399 z"
   id="path7"
   style="fill:#cd3c27" />
<path
   d="m 230.95499,337.932 c -76.705,0 -152.309,-11.773 -224.7119995,-34.989 l -2.243,-0.72 0.476,-2.307 C 17.43299,237.06 45.03799,176.825 84.30499,125.726 c 38.725,-50.393 89.023,-92.274 145.458,-121.1160001 l 1.193,-0.61 1.193,0.61 C 288.58399,33.452 338.88099,75.334 377.60599,125.726 c 39.268,51.1 66.871,111.334 79.828,174.19 l 0.477,2.307 -2.243,0.72 c -72.405,23.216 -148.009,34.989 -224.713,34.989 z m -220.862,-39.265 c 71.201,22.574 145.496,34.021 220.862,34.021 75.365,0 149.661,-11.447 220.862,-34.021 C 425.34199,173.705 344.97999,68.612 230.95499,9.8899999 116.92999,68.612 36.56699,173.705 10.09299,298.667 z"
   id="path9"
   style="fill:#cd3c27" />
</svg>
