<?xml version="1.0"?>
<svg width="960" height="432" viewBox="0 0 960 432" xmlns="http://www.w3.org/2000/svg">
<g style="fill:none;stroke:#000">
 <path style="stroke-width:4.00017" d="m 492.3,124.8 c 0,-8.6 -7.2,-16.5 -17.7,-16.5 -10.5,0 -17.7,7.9 -17.7,16.5 v 57.7 c 0,8.6 7.2,16.5 17.7,16.5 10.5,0 17.7,-7.9 17.7,-16.5 z"/>
 <path style="stroke-width:4" d="M 474.6,107.4 V 94.01" />
 <path style="stroke-width:3.99996" d="m 493.3,163.6 h 55.2" />
 <path style="stroke-width:3.99989" d="M 492.1,186.4 H 545" />
 <path style="stroke-width:4.00017" d="m 456.5,163.6 h -55" />
 <path style="stroke-width:4.00023" d="M 456.8,186.4 H 405.5" />
 <path style="stroke-width:4" d="m 592.4,166.5 302.7,-22.3 c 0,0 24.7,-2.9 26.4,3 1.7,5.9 -25.5,8.4 -25.5,8.4 L 594.6,185" />
 <path style="stroke-width:4" d="M 358.7,166.5 55.97,144.2 c 0,0 -24.7,-2.9 -26.4,3 -1.7,5.9 25.5,8.4 25.5,8.4 L 356.5,185" />
 <circle style="stroke-width:4.00045;" r="17.66" cy="138.8" cx="474.6" />
 <circle style="stroke-width:4" cx="380.4" cy="178.7" r="51.31"/>
 <circle style="stroke-width:4.00042" cx="380.4" cy="178.7" r="24.62" />
 <circle style="stroke-width:4" cx="569" cy="178.7" r="51.31" />
 <circle style="stroke-width:4.00042" cx="569" cy="178.7" r="24.62" />
 <path style="fill:#000;stroke:#000;stroke-width:1px" d="m 568.3,178.1 v -9.5 c 0,0 -2.3,-12.7 -2.3,-19.6 0,-6.9 0.4,-21.8 3.3,-21.8 2.9,0 3.6,14.5 3.6,21.8 0,6.6 -2.4,19.6 -2.4,19.6 v 9.5 z m 1.7,0.8 -8.2,4.8 c 0,0 -9.8,8.3 -15.8,11.7 -6,3.5 -19.1,10.6 -20.5,8.1 -1.5,-2.5 10.7,-10.4 17,-14 5.8,-3.3 18.2,-7.8 18.2,-7.8 l 8.2,-4.7 z m -0.1,-1.9 8.2,4.7 c 0,0 12.1,4.4 18.1,7.9 6,3.4 18.7,11.2 17.2,13.7 -1.4,2.5 -14.3,-4.1 -20.6,-7.8 C 587,192.2 577,183.7 577,183.7 l -8.2,-4.8 z" />
 <path style="fill:#000;stroke:#000;stroke-width:1px" d="m 568.3,178.1 v -9.5 c 0,0 -2.3,-12.7 -2.3,-19.6 0,-6.9 0.4,-21.8 3.3,-21.8 2.9,0 3.6,14.5 3.6,21.8 0,6.6 -2.4,19.6 -2.4,19.6 v 9.5 z m 1.7,0.8 -8.2,4.8 c 0,0 -9.8,8.3 -15.8,11.7 -6,3.5 -19.1,10.6 -20.5,8.1 -1.5,-2.5 10.7,-10.4 17,-14 5.8,-3.3 18.2,-7.8 18.2,-7.8 l 8.2,-4.7 z m -0.1,-1.9 8.2,4.7 c 0,0 12.1,4.4 18.1,7.9 6,3.4 18.7,11.2 17.2,13.7 -1.4,2.5 -14.3,-4.1 -20.6,-7.8 C 587,192.2 577,183.7 577,183.7 l -8.2,-4.8 z" transform="translate(-189)" />
</g>
<g style="fill:#000;stroke:#000;stroke-width:1px">
 <path d="m 252.5,289.9 42.3,17.6 c 16.8,7 22,-12.3 10.2,-21.4 l -29.6,-21.5 c 0,0 -13.9,-13.2 -3.5,-31.2 9.2,-16 28.1,-10.5 28.1,-10.5 l 40.3,16.8 c 1.7,0.5 3.3,2.8 2.6,4.9 l -2.4,6.2 c -1.2,2.4 -4.3,2.4 -6.9,1.5 l -36,-15.2 c 0,0 -8,-3.6 -12.5,5 -4.5,8.7 3,13.6 3,13.6 l 25.8,18 c 27.4,19.8 7.9,58.9 -22.6,47.4 L 247,303.4 c -2.9,-1.1 -2.5,-3.7 -2.3,-5.7 l 2.5,-5.8 c 1.2,-2.1 3.2,-2.6 5.3,-2 z" />
 <path d="m 421.7,254.5 c -0.9,0 -1.8,0.3 -2.4,1.1 L 356.8,339 c -0.5,0.6 0,2.5 1,2.9 l 12.4,2.1 c 1,0.2 3.1,-0.9 3.3,-1.5 l 15.9,-21.7 43.5,5.5 9.1,26 c 0.4,1.1 1,2.2 1.9,2.4 l 15.1,2 c 1.2,0.2 2.3,-0.5 2,-1.5 l -36,-98.7 c -0.4,-1.1 -1.9,-2 -3.3,-2 z m -4.4,29.3 c 0.6,0 1.1,0.5 1.6,1.8 l 8.8,24.2 c 0.9,2.4 0.3,3.7 -2.2,3.4 l -24.7,-2.8 c -2.4,-0.3 -2.9,-1.6 -0.7,-4.7 l 14.8,-20.2 c 0.8,-1 1.6,-1.7 2.4,-1.7 z" />
 <path d="m 538.3,254.5 c 0.9,0 1.8,0.3 2.4,1.1 l 62.5,83.4 c 0.5,0.6 0,2.5 -1,2.9 l -12.4,2.1 c -1,0.2 -3.1,-0.9 -3.3,-1.5 l -15.9,-21.7 -43.5,5.5 -9.1,26 c -0.4,1.1 -1,2.2 -1.9,2.4 l -15.1,2 c -1.2,0.2 -2.3,-0.5 -2,-1.5 l 36,-98.7 c 0.4,-1.1 1.9,-2 3.3,-2 z m 4.4,29.3 c -0.6,0 -1.1,0.5 -1.6,1.8 l -8.8,24.2 c -0.9,2.4 -0.3,3.7 2.2,3.4 l 24.7,-2.8 c 2.4,-0.3 2.9,-1.6 0.7,-4.7 l -14.8,-20.2 c -0.8,-1 -1.6,-1.7 -2.4,-1.7 z" />
 <path d="M 674.6 217.6 C 671.6 217.7 668.5 218.1 665.2 218.9 L 617.9 234.8 C 615.3 235.9 613.5 240.5 615.1 244.1 L 643.4 325.5 C 644.9 328.7 647.5 330.4 651 329 L 700.1 311.9 C 732 300.7 721.9 257 697 257.7 C 713.3 246.4 702.9 216.6 674.6 217.6 z M 676 234.1 C 691.1 234.3 694.4 251.4 673.8 258.7 L 645.1 268.8 C 643 269.5 641.4 268.3 640.8 266.8 L 635.9 251.4 C 635 248.9 636 247 637.8 246.3 L 668.9 235.2 C 671.5 234.4 673.9 234.1 676 234.1 z M 690.4 270.9 C 706.2 271.1 710.1 291.8 689.2 299.2 L 659.9 309.3 C 657.8 310 655.1 308.5 654.5 307 L 648.4 287.7 C 647.5 285.2 649 283.9 650.8 283.2 L 684.1 271.8 C 686.4 271.1 688.5 270.9 690.4 270.9 z " />
</g>
</svg>
